<?xml version="1.0" standalone="no"?>
<!DOCTYPE svg PUBLIC "-//W3C//DTD SVG 20010904//EN"
 "http://www.w3.org/TR/2001/REC-SVG-20010904/DTD/svg10.dtd">
<svg version="1.0" xmlns="http://www.w3.org/2000/svg"
 width="700.000000pt" height="700.000000pt" viewBox="0 0 700.000000 700.000000"
 preserveAspectRatio="xMidYMid meet">
<metadata>
Created by potrace 1.11, written by Peter Selinger 2001-2013
</metadata>
<g transform="translate(0.000000,700.000000) scale(0.100000,-0.100000)"
fill="#000000" stroke="none">
<path d="M1810 6534 l0 -466 -42 -16 c-80 -30 -232 -113 -313 -170 -102 -73
-264 -235 -337 -337 -58 -82 -128 -209 -166 -302 l-21 -53 -465 0 -466 0 0
-490 0 -490 470 0 c344 0 470 -3 470 -11 0 -26 95 -210 156 -301 149 -224 358
-399 618 -519 l96 -44 0 -272 0 -273 -905 0 -905 0 0 -490 0 -490 905 0 905 0
0 -905 0 -905 490 0 490 0 0 905 0 905 274 0 274 0 12 -32 c33 -82 117 -240
168 -313 146 -210 448 -447 655 -514 l37 -13 0 -469 0 -469 490 0 490 0 0 465
0 466 47 20 c371 158 643 422 793 767 l37 87 467 3 466 2 0 490 0 490 -470 0
c-369 0 -470 3 -470 13 0 6 -22 57 -49 112 -158 326 -416 574 -743 715 l-78
34 0 273 0 273 905 0 905 0 0 490 0 490 -905 0 -905 0 0 905 0 905 -490 0
-490 0 0 -905 0 -905 -274 0 -273 0 -33 78 c-133 318 -393 589 -714 743 -55
27 -107 49 -113 49 -10 0 -13 101 -13 470 l0 470 -490 0 -490 0 0 -466z m2400
-2600 l0 -275 -32 -11 c-65 -22 -243 -119 -321 -176 -203 -145 -382 -367 -483
-599 l-33 -78 -276 -3 -275 -2 2 276 3 276 88 38 c239 103 466 295 620 523 42
63 110 192 145 280 l12 27 275 0 275 0 0 -276z"/>
</g>
</svg>
